<?xml version="1.0" encoding="UTF-8"?>
<svg id="Capa_2" data-name="Capa 2" xmlns="http://www.w3.org/2000/svg" viewBox="0 0 110.56 68.03">
  <defs>
    <style>
      .cls-1 {
        fill: #fff;
        stroke-width: 0px;
      }
    </style>
  </defs>
  <g id="arte">
    <g>
      <path class="cls-1" d="M98.06,4.65c0,1.93-1.69,3.48-3.78,3.48s-3.78-1.56-3.78-3.48,1.7-3.48,3.78-3.48c2.09,0,3.78,1.56,3.78,3.48Z"/>
      <path class="cls-1" d="M100.1,31.35c0,1.79-1.58,3.25-3.52,3.25s-3.53-1.45-3.53-3.25,1.58-3.25,3.53-3.25c1.94,0,3.52,1.45,3.52,3.25Z"/>
      <path class="cls-1" d="M110.35,7.52c-1.65-7.88-11.3-7.07-11.3-7.07v.64c2.68,0,5.54,1.17,5.79,5.59.24,4.41-5.62,7.6-7.25,8.6-1.63,1-1.6,2.48-1.6,2.48v6.85h0v1.71h1.01l.26-2.61c.49-1.25,1.88-3.51,5.67-4.79,9.61-3,7.42-11.4,7.42-11.4Z"/>
      <polygon class="cls-1" points="0 0 26.65 68.03 30.62 68.03 36.47 53.39 14.61 0 0 0"/>
      <polygon class="cls-1" points="29.68 0 56.33 68.03 60.3 68.03 66.15 53.39 44.28 0 29.68 0"/>
      <polygon class="cls-1" points="27.48 67.98 30.62 68.03 42.15 39.36 40.68 35.67 27.48 67.98"/>
      <polygon class="cls-1" points="57.89 0 52.79 13.02 54.24 16.69 60.76 0 57.89 0"/>
      <polygon class="cls-1" points="84.11 .39 57.37 67.98 60.51 68.03 86.99 .39 84.11 .39"/>
    </g>
  </g>
</svg>